<svg width="90" height="33" viewBox="0 0 90 33" fill="none" xmlns="http://www.w3.org/2000/svg">
<path d="M0.774719 27.1042V20.4949L13.3814 0.66696H19.3787V9.47938H15.9517L9.15876 20.2501V20.4949H27.7627V27.1042H0.774719ZM16.0129 32V25.0847L16.1965 22.2084V0.66696H24.1521V32H16.0129Z" fill="white"/>
<path d="M44.9783 32.8568C42.1326 32.8466 39.6746 32.1887 37.604 30.8831C35.5335 29.5776 33.9373 27.6958 32.8154 25.2377C31.6934 22.7796 31.1375 19.8319 31.1477 16.3947C31.1579 12.9472 31.7189 10.02 32.8307 7.61286C33.9526 5.20576 35.5437 3.37494 37.604 2.1204C39.6746 0.865852 42.1326 0.238579 44.9783 0.238579C47.824 0.238579 50.2821 0.870952 52.3526 2.1357C54.4231 3.39024 56.0193 5.22106 57.1413 7.62816C58.2632 10.0353 58.8191 12.9574 58.8089 16.3947C58.8089 19.8523 58.2479 22.8102 57.126 25.2683C56.004 27.7264 54.4078 29.6082 52.3373 30.9137C50.277 32.2091 47.824 32.8568 44.9783 32.8568ZM44.9783 25.9415C46.4471 25.9415 47.6506 25.1765 48.589 23.6466C49.5375 22.1064 50.0067 19.6891 49.9965 16.3947C49.9965 14.2426 49.7823 12.4831 49.3539 11.1164C48.9256 9.74967 48.334 8.73991 47.5792 8.08714C46.8244 7.42417 45.9575 7.09268 44.9783 7.09268C43.5096 7.09268 42.3111 7.83725 41.383 9.32638C40.4548 10.8155 39.9805 13.1716 39.9601 16.3947C39.9499 18.5876 40.159 20.3929 40.5874 21.8106C41.0158 23.2182 41.6074 24.2585 42.3621 24.9317C43.1271 25.6049 43.9992 25.9415 44.9783 25.9415Z" fill="white"/>
<path d="M62.4961 27.1042V20.4949L75.1027 0.66696H81.1001V9.47938H77.673L70.8801 20.2501V20.4949H89.4841V27.1042H62.4961ZM77.7342 32V25.0847L77.9178 22.2084V0.66696H85.8734V32H77.7342Z" fill="white"/>
</svg>
