<svg xmlns="http://www.w3.org/2000/svg" version="1.1" xmlns:xlink="http://www.w3.org/1999/xlink" xmlns:svgjs="http://svgjs.com/svgjs" width="1440" height="560" preserveAspectRatio="none" viewBox="0 0 1440 560"><g mask="url(&quot;#SvgjsMask1014&quot;)" fill="none"><path d="M35 140C35 124.38 5.2 130.43 0 109.64C-12.3 60.43 -28.62 26.2 0 0C31.25 -28.62 64.2 -9.4 119.74 0C134.2 2.45 129.91 23.69 140 23.69C150.04 23.69 145.63 2.43 160 0C215.63 -9.41 220 0 280 0C333.72 0 370.26 -30.07 387.44 0C410.26 39.93 348.79 83.62 360 140C365.07 165.5 390.56 163.77 420 163.77C443.89 163.77 462.31 162.21 466.67 140C478.4 80.32 425.76 39.64 452.18 0C472.42 -30.36 506.09 0 560 0C630 0 630 0 700 0C770 0 770 0 840 0C893.85 0 901.11 -14.46 947.69 0C971.11 7.27 958.35 43.45 980 43.45C1021.17 43.45 1025.16 14.95 1073.33 0C1095.16 -6.78 1096.66 0 1120 0C1190 0 1190 0 1260 0C1330 0 1330 0 1400 0C1470 0 1505 -35 1540 0C1575 35 1540 70 1540 140C1540 194.73 1552.29 200.31 1540 249.45C1534.79 270.31 1505 266.37 1505 280C1505 291.89 1535.57 282.75 1540 300.49C1553.07 352.75 1540 360.25 1540 420C1540 490 1570.63 520.63 1540 560C1516.18 590.63 1484.65 564.72 1431.11 560C1414.65 558.55 1415.44 547.65 1400 547.65C1385.88 547.65 1387.02 558.67 1372 560C1317.02 564.85 1316 560 1260 560C1190 560 1190 560 1120 560C1050 560 1050 560 980 560C910 560 910 560 840 560C770 560 770 560 700 560C630 560 630 560 560 560C490 560 490 560 420 560C350 560 350 560 280 560C210 560 210 560 140 560C130 560 124.22 568.28 120 560C88.56 498.28 107.48 479.44 68.68 420C47.48 387.51 15.75 408.25 0 376.14C-18.59 338.25 0 328.07 0 280C0 226.8 -12.02 221.68 0 173.6C5.48 151.68 35 156.36 35 140" stroke="rgba(228, 228, 231, 1)" stroke-width="2"></path><path d="M700 53.85C655.68 53.85 620 101.01 620 140C620 172.56 657.49 196.95 700 196.95C757.49 196.95 820 173.88 820 140C820 102.33 755.68 53.85 700 53.85" stroke="rgba(228, 228, 231, 1)" stroke-width="2"></path><path d="M1400 31.82C1378.17 31.82 1353.33 90.61 1353.33 140C1353.33 167.15 1377.58 184.91 1400 184.91C1420.75 184.91 1439.67 166.19 1439.67 140C1439.67 89.64 1421.34 31.82 1400 31.82" stroke="rgba(228, 228, 231, 1)" stroke-width="2"></path><path d="M140 242.16C121.82 242.16 103.64 259.1 103.64 280C103.64 307.8 121.82 339.57 140 339.57C158.18 339.57 176.36 307.8 176.36 280C176.36 259.1 158.18 242.16 140 242.16" stroke="rgba(228, 228, 231, 1)" stroke-width="2"></path><path d="M1120 267.27C1104.32 267.27 1085 274 1085 280C1085 285.92 1104.01 291.11 1120 291.11C1126.51 291.11 1130 285.72 1130 280C1130 273.8 1126.82 267.27 1120 267.27" stroke="rgba(228, 228, 231, 1)" stroke-width="2"></path><path d="M700 365.96C661.5 365.96 609.41 397.39 609.41 420C609.41 440.62 658.34 452.42 700 452.42C719.85 452.42 732.42 438.21 732.42 420C732.42 394.98 723 365.96 700 365.96" stroke="rgba(228, 228, 231, 1)" stroke-width="2"></path><path d="M83.61 140C83.61 109.68 112.38 109.27 140 77.54C173.3 39.27 165.1 22.35 205.45 0C235.1 -16.42 242.73 0 280 0C313.37 0 346.74 -18.45 346.74 0C346.74 34.7 318.29 57.6 280 106.3C263.25 127.6 236.67 122.18 236.67 140C236.67 159.25 253.84 167.63 280 180.44C345.51 212.53 351.65 201.28 420 229.81C470.91 251.06 495.67 238.05 518.52 280C547.47 333.15 517.82 350.27 523.6 420C529.43 490.27 569.55 522.41 541.74 560C517.75 592.41 480.87 560 420 560C350 560 350 560 280 560C232.67 560 214.01 586.36 185.35 560C144.01 521.96 163.21 495.38 140 431.2C137.9 425.38 134.72 425.22 134.72 420C134.72 416.64 136.2 414.04 140 414.04C166.84 414.04 167.99 417.16 196 420C237.99 424.26 239.2 428.24 280 428.24C286.45 428.24 290.5 424.61 290.5 420C290.5 414.49 283.5 415.13 280 408C249.16 345.13 259.87 337.92 221.82 280C189.87 231.35 181.47 236.87 140 194.86C112.37 166.87 83.61 168.34 83.61 140" stroke="rgba(228, 228, 231, 1)" stroke-width="2"></path><path d="M73.68 0C73.68 19.42 21.99 67.47 0 67.47C-14.85 67.47 -17.61 16.13 0 0C19.23 -17.61 73.68 -14.32 73.68 0" stroke="rgba(228, 228, 231, 1)" stroke-width="2"></path><path d="M560 120C518.89 120 492.41 40.25 492.41 0C492.41 -19.75 526.2 0 560 0C616.54 0 673.08 -24.41 673.08 0C673.08 35.59 609.22 120 560 120" stroke="rgba(228, 228, 231, 1)" stroke-width="2"></path><path d="M840 87.5C791.52 87.5 731.11 24.59 731.11 0C731.11 -19.16 785.56 0 840 0C871.41 0 902.82 -16.12 902.82 0C902.82 27.63 877.38 87.5 840 87.5" stroke="rgba(228, 228, 231, 1)" stroke-width="2"></path><path d="M921.67 140C921.67 115.86 948.63 117.29 980 103.79C1047.8 74.61 1051.25 82.3 1120 54.63C1180.2 30.4 1178.07 23.34 1237.89 0C1248.07 -3.97 1248.95 0 1260 0C1269.13 0 1276.84 -8.07 1278.26 0C1289.19 61.93 1256.29 81.41 1284.71 140C1317.16 206.88 1342 195.85 1400 250.94C1415.69 265.85 1414.08 268.14 1432.08 280C1484.08 314.26 1506.58 299.81 1540 343.17C1560.54 369.81 1540 381.59 1540 420C1540 484.29 1572.37 530.96 1540 548.57C1502.37 569.05 1469.45 494.59 1400 496.18C1329.45 497.8 1331.17 551.34 1260 555C1191.17 558.54 1188.05 509.15 1120 510.59C1069.59 511.65 1073.22 542.3 1023.08 560C1003.22 567.01 1001.54 560 980 560C910 560 910 560 840 560C770 560 770 560 700 560C634.12 560 568.24 576.57 568.24 560C568.24 541.2 639.27 531.56 700 489.26C739.78 461.56 769.26 458.89 769.26 420C769.26 366.54 745.78 348.15 700 304.56C672.26 278.15 622.22 292.09 622.22 280C622.22 267.95 659.99 260.39 700 256.27C768.88 249.19 772.2 248.66 840 257.6C862.2 260.53 859.75 269.26 880 280C929.75 306.39 926.66 317.03 980 331.85C1046.66 350.37 1058.92 362.51 1120 346.67C1158.92 336.58 1180 314.34 1180 280C1180 242.82 1160.7 215.04 1120 203.64C1060.7 187.04 1037.56 242.47 980 224C938.39 210.65 921.67 175.96 921.67 140" stroke="rgba(228, 228, 231, 1)" stroke-width="2"></path><path d="M1498 140C1478 75.53 1467.45 49.67 1482.35 0C1488.45 -20.33 1531.59 -20.42 1540 0C1560.42 49.58 1540 70 1540 140C1540 162.91 1548.91 185.82 1540 185.82C1527.91 185.82 1506.82 168.44 1498 140" stroke="rgba(228, 228, 231, 1)" stroke-width="2"></path><path d="M0 220.27C16.95 220.27 58.18 250.87 58.18 280C58.18 307.73 17.31 333.98 0 333.98C-11.78 333.98 0 306.99 0 280C0 250.13 -12.14 220.27 0 220.27" stroke="rgba(228, 228, 231, 1)" stroke-width="2"></path><path d="M132.22 140C132.22 135.82 135.54 131.38 140 131.38C146.1 131.38 153.33 135.88 153.33 140C153.33 143.98 146.18 147.57 140 147.57C135.62 147.57 132.22 143.91 132.22 140" stroke="rgba(228, 228, 231, 1)" stroke-width="2"></path><path d="M27.63 0C27.63 7.28 8.25 25.3 0 25.3C-5.57 25.3 -6.6 6.05 0 0C7.21 -6.6 27.63 -5.37 27.63 0" stroke="rgba(228, 228, 231, 1)" stroke-width="2"></path><path d="M280 41.48C265.98 41.48 250.91 13.18 250.91 0C250.91 -7.56 265.45 0 280 0C293.02 0 306.05 -7.2 306.05 0C306.05 13.54 293.55 41.48 280 41.48" stroke="rgba(228, 228, 231, 1)" stroke-width="2"></path><path d="M560 48.57C543.36 48.57 532.64 16.29 532.64 0C532.64 -8 546.32 0 560 0C582.88 0 605.77 -9.88 605.77 0C605.77 14.41 579.92 48.57 560 48.57" stroke="rgba(228, 228, 231, 1)" stroke-width="2"></path><path d="M840 25C826.15 25 808.89 7.02 808.89 0C808.89 -5.48 824.44 0 840 0C848.97 0 857.95 -4.6 857.95 0C857.95 7.9 850.68 25 840 25" stroke="rgba(228, 228, 231, 1)" stroke-width="2"></path><path d="M0 266.93C3.71 266.93 12.73 273.63 12.73 280C12.73 286.07 3.79 291.81 0 291.81C-2.58 291.81 0 285.9 0 280C0 273.47 -2.66 266.93 0 266.93" stroke="rgba(228, 228, 231, 1)" stroke-width="2"></path><path d="M267.27 280C267.27 268.78 269.28 258.22 280 258.22C313.34 258.22 355.38 267.71 355.38 280C355.38 292.6 311.87 308 280 308C267.81 308 267.27 293.67 267.27 280" stroke="rgba(228, 228, 231, 1)" stroke-width="2"></path><path d="M1230 280C1251.74 250.5 1238.1 212.26 1260 212.26C1289.31 212.26 1297.77 244.59 1332.41 280C1367.77 316.15 1357.02 333.47 1400 355.38C1460.82 386.39 1483.47 359.76 1540 385.85C1553.47 392.07 1540 402.92 1540 420C1540 448.57 1559.91 473.63 1540 477.14C1489.91 485.98 1470.72 456.62 1400 444.71C1330.72 433.05 1330.06 430.69 1260 430C1190.06 429.31 1188.98 445.24 1120 441.96C1083.98 440.24 1050 430.01 1050 420C1050 410.14 1092.53 423.58 1120 402.22C1182.53 353.58 1181.74 345.48 1230 280" stroke="rgba(228, 228, 231, 1)" stroke-width="2"></path><path d="M378 420C409.58 381.62 400.8 326.67 420 326.67C438.6 326.67 453.6 373.19 453.6 420C453.6 469.26 440.05 470.93 420 518.82C410.75 540.93 415.67 553.92 395 560C345.67 574.51 337.5 560 280 560C257.33 560 234.65 571.63 234.65 560C234.65 540.06 252.45 523.76 280 496.86C324.13 453.76 339.58 466.71 378 420" stroke="rgba(228, 228, 231, 1)" stroke-width="2"></path><path d="M806.11 420C830.58 388.66 813.26 346.82 840 346.82C882.14 346.82 927.99 370.14 943.87 420C961.93 476.73 943.22 512.37 907.88 560C891.28 582.37 873.94 560 840 560C770 560 770 560 700 560C668.43 560 636.86 567.94 636.86 560C636.86 550.99 672.65 548.73 700 526.11C757.27 478.73 760.58 478.31 806.11 420" stroke="rgba(228, 228, 231, 1)" stroke-width="2"></path></g><defs><mask id="SvgjsMask1014"><rect width="1440" height="560" fill="#ffffff"></rect></mask></defs></svg>