<svg width="128" height="128" viewBox="0 0 128 128" fill="none" xmlns="http://www.w3.org/2000/svg">
<path d="M64 16C69.6579 16 75.0842 18.2476 79.0849 22.2484C83.0857 26.2492 85.3333 31.6754 85.3333 37.3333C85.3333 41.2267 84.32 44.8533 82.4533 48H96C101.067 48 105.333 51.5733 106.4 56.32C117.12 99.04 117.333 100.16 117.333 101.333C117.333 104.162 116.21 106.875 114.209 108.876C112.209 110.876 109.496 112 106.667 112H21.3333C18.5043 112 15.7912 110.876 13.7909 108.876C11.7905 106.875 10.6667 104.162 10.6667 101.333C10.6667 100.16 10.88 99.04 21.6 56.32C22.6667 51.5733 26.9333 48 32 48H45.5467C43.6401 44.7701 42.6449 41.0839 42.6667 37.3333C42.6667 31.6754 44.9143 26.2492 48.915 22.2484C52.9158 18.2476 58.342 16 64 16V16ZM64 26.6667C61.171 26.6667 58.4579 27.7905 56.4575 29.7909C54.4571 31.7912 53.3333 34.5044 53.3333 37.3333C53.3333 40.1623 54.4571 42.8754 56.4575 44.8758C58.4579 46.8762 61.171 48 64 48C66.829 48 69.5421 46.8762 71.5425 44.8758C73.5428 42.8754 74.6667 40.1623 74.6667 37.3333C74.6667 34.5044 73.5428 31.7912 71.5425 29.7909C69.5421 27.7905 66.829 26.6667 64 26.6667V26.6667ZM32 58.6667V101.333H42.6667V88L48 93.3333V101.333H58.6667V90.6667L48 80L58.6667 69.3333V58.6667H48V66.6667L42.6667 72V58.6667H32ZM80 58.6667C74.08 58.6667 69.3333 63.4133 69.3333 69.3333V90.6667C69.3333 96.5867 74.08 101.333 80 101.333H96V74.6667H85.3333V90.6667H80V69.3333H96V58.6667H80Z" fill="#1A1D27"/>
</svg>
