<svg width="128" height="128" viewBox="0 0 128 128" fill="none" xmlns="http://www.w3.org/2000/svg">
<path d="M90.6667 16H112V26.6667H90.6667V16ZM90.6667 37.3333H112V48H90.6667V37.3333ZM90.6667 58.6667H112V69.3333H94.6667L90.6667 64.5333V58.6667ZM112 80V90.6667H101.333C101.333 86.9867 100.8 83.36 99.7867 80H112ZM37.3333 16V26.6667H16V16H37.3333ZM37.3333 37.3333V48H16V37.3333H37.3333ZM37.3333 58.6667V64.5333L33.3333 69.3333H16V58.6667H37.3333ZM16 80H28.2133C27.2 83.36 26.6667 86.9867 26.6667 90.6667H16V80ZM80 69.3333V26.6667C80 17.8133 72.8533 10.6667 64 10.6667C55.1467 10.6667 48 17.8133 48 26.6667V69.3333C36.2133 78.1867 33.8133 94.88 42.6667 106.667C51.52 118.453 68.2133 120.853 80 112C91.7867 103.147 94.1867 86.4533 85.3333 74.6667C83.8323 72.6322 82.0345 70.8344 80 69.3333V69.3333ZM64 21.3333C66.9333 21.3333 69.3333 23.7333 69.3333 26.6667V42.6667H58.6667V26.6667C58.6667 23.7333 61.0667 21.3333 64 21.3333Z" fill="#1A1D27"/>
</svg>
